<svg width="80.089" xmlns="http://www.w3.org/2000/svg" height="101.286" id="screenshot-a20101ed-8de0-80b5-8001-d170cc6ac7b6" viewBox="0 0 80.089 101.286" xmlns:xlink="http://www.w3.org/1999/xlink" fill="none" version="1.1"><g id="shape-a20101ed-8de0-80b5-8001-d170cc6ac7b6" width="82" height="103" rx="0" ry="0" style="fill: rgb(0, 0, 0);"><g id="shape-a20101ed-8de0-80b5-8001-d170cc6d434a"><g class="fills" id="fills-a20101ed-8de0-80b5-8001-d170cc6d434a"><path d="M0.000,31.505C0.000,30.762,0.393,30.075,1.032,29.697L38.977,7.292C39.636,6.903,40.454,6.903,41.112,7.292M0.000,31.505L41.112,7.292M0.000,31.505L0.000,79.088C0.000,79.879,0.445,80.604,1.152,80.961L39.096,100.166C39.693,100.467,40.397,100.467,40.993,100.166L78.938,80.961C79.644,80.604,80.089,79.879,80.089,79.088L80.089,31.505C80.089,30.762,79.697,30.075,79.057,29.697L41.112,7.292M0.000,31.505L40.858,7.722L41.112,7.292" stroke-linecap="round" style="fill: rgb(53, 57, 69); fill-opacity: 1;"/></g><g stroke-linecap="round" id="strokes-7456ef9b-02fe-8088-8006-5c5230a6ab1b-a20101ed-8de0-80b5-8001-d170cc6d434a" class="strokes"><g class="stroke-shape"><path d="M0.000,31.505C0.000,30.762,0.393,30.075,1.032,29.697L38.977,7.292C39.636,6.903,40.454,6.903,41.112,7.292M0.000,31.505L41.112,7.292M0.000,31.505L0.000,79.088C0.000,79.879,0.445,80.604,1.152,80.961L39.096,100.166C39.693,100.467,40.397,100.467,40.993,100.166L78.938,80.961C79.644,80.604,80.089,79.879,80.089,79.088L80.089,31.505C80.089,30.762,79.697,30.075,79.057,29.697L41.112,7.292M0.000,31.505L40.858,7.722L41.112,7.292" style="fill: none; stroke-width: 1; stroke: rgb(201, 207, 217); stroke-opacity: 1;"/></g></g></g><g id="shape-a20101ed-8de0-80b5-8001-d170cc6e5cd1"><g class="fills" id="fills-a20101ed-8de0-80b5-8001-d170cc6e5cd1"><path d="M39.731,8.222C40.233,7.926,40.856,7.926,41.358,8.222L80.089,31.092L41.275,51.014C40.817,51.250,40.273,51.250,39.814,51.014L1.000,31.092L39.731,8.222ZZ" fill-rule="evenodd" clip-rule="evenodd" style="fill: rgb(44, 47, 55); fill-opacity: 1;"/></g></g><g id="shape-a20101ed-8de0-80b5-8001-d170cc6f68a7"><g class="fills" id="fills-a20101ed-8de0-80b5-8001-d170cc6f68a7"><path d="M18.000,39.472L18.000,2.997C18.000,1.342,18.983,0.000,20.203,0.000L60.834,0.000C62.051,0.000,63.037,1.334,63.037,2.997L63.037,39.255L39.969,50.959" fill-rule="evenodd" clip-rule="evenodd" style="fill: rgb(26, 27, 31); fill-opacity: 1;"/></g></g><g id="shape-a20101ed-8de0-80b5-8001-d170cc70ec4f"><g class="fills" id="fills-a20101ed-8de0-80b5-8001-d170cc70ec4f"><path d="M1.000,31.000L40.450,51.568L40.450,101.285" fill="none" style="fill: none;"/></g><g fill="none" id="strokes-7456ef9b-02fe-8088-8006-5c5230a8b930-a20101ed-8de0-80b5-8001-d170cc70ec4f" class="strokes"><g class="stroke-shape"><path d="M1.000,31.000L40.450,51.568L40.450,101.285" style="fill: none; stroke-width: 1; stroke: rgb(201, 207, 217); stroke-opacity: 1;"/></g></g></g><g id="shape-a20101ed-8de0-80b5-8001-d170cc714a83"><g class="fills" id="fills-a20101ed-8de0-80b5-8001-d170cc714a83"><path d="M79.450,31.000L40.000,51.568L40.000,101.286" fill="none" style="fill: none;"/></g><g fill="none" id="strokes-7456ef9b-02fe-8088-8006-5c5230a930b1-a20101ed-8de0-80b5-8001-d170cc714a83" class="strokes"><g class="stroke-shape"><path d="M79.450,31.000L40.000,51.568L40.000,101.286" style="fill: none; stroke-width: 1; stroke: rgb(201, 207, 217); stroke-opacity: 1;"/></g></g></g><g id="shape-a20101ed-8de0-80b5-8001-d170cc71804b"><g class="fills" id="fills-a20101ed-8de0-80b5-8001-d170cc71804b"><path d="M25.000,26.000L54.027,26.000" fill="none" stroke-linecap="round" style="fill: none;"/></g><g fill="none" stroke-linecap="round" id="strokes-7456ef9b-02fe-8088-8006-5c5230a9bf0f-a20101ed-8de0-80b5-8001-d170cc71804b" class="strokes"><g class="stroke-shape"><path d="M25.000,26.000L54.027,26.000" style="fill: none; stroke-width: 1; stroke: rgb(49, 239, 184); stroke-opacity: 1;"/></g></g></g><g id="shape-a20101ed-8de0-80b5-8001-d170cc7241e0"><g class="fills" id="fills-a20101ed-8de0-80b5-8001-d170cc7241e0"><path d="M24.000,33.000L33.268,33.000" fill="none" stroke-linecap="round" style="fill: none;"/></g><g fill="none" stroke-linecap="round" id="strokes-7456ef9b-02fe-8088-8006-5c5230a9d6e6-a20101ed-8de0-80b5-8001-d170cc7241e0" class="strokes"><g class="stroke-shape"><path d="M24.000,33.000L33.268,33.000" style="fill: none; stroke-width: 1; stroke: rgb(49, 239, 184); stroke-opacity: 1;"/></g></g></g><g id="shape-a20101ed-8de0-80b5-8001-d170cc72a2d8"><g class="fills" id="fills-a20101ed-8de0-80b5-8001-d170cc72a2d8"><path d="M38.000,33.000L47.268,33.000" fill="none" stroke-linecap="round" style="fill: none;"/></g><g fill="none" stroke-linecap="round" id="strokes-7456ef9b-02fe-8088-8006-5c5230aa68de-a20101ed-8de0-80b5-8001-d170cc72a2d8" class="strokes"><g class="stroke-shape"><path d="M38.000,33.000L47.268,33.000" style="fill: none; stroke-width: 1; stroke: rgb(49, 239, 184); stroke-opacity: 1;"/></g></g></g><g id="shape-a20101ed-8de0-80b5-8001-d170cc7324ab"><g class="fills" id="fills-a20101ed-8de0-80b5-8001-d170cc7324ab"><path d="M50.000,33.000L54.882,33.000" fill="none" stroke-linecap="round" style="fill: none;"/></g><g fill="none" stroke-linecap="round" id="strokes-7456ef9b-02fe-8088-8006-5c5230aad4c3-a20101ed-8de0-80b5-8001-d170cc7324ab" class="strokes"><g class="stroke-shape"><path d="M50.000,33.000L54.882,33.000" style="fill: none; stroke-width: 1; stroke: rgb(49, 239, 184); stroke-opacity: 1;"/></g></g></g><g id="shape-a20101ed-8de0-80b5-8001-d170cc734382"><g class="fills" id="fills-a20101ed-8de0-80b5-8001-d170cc734382"><path d="M45.000,18.000L54.670,18.000" fill="none" stroke-linecap="round" style="fill: none;"/></g><g fill="none" stroke-linecap="round" id="strokes-7456ef9b-02fe-8088-8006-5c5230ab0f69-a20101ed-8de0-80b5-8001-d170cc734382" class="strokes"><g class="stroke-shape"><path d="M45.000,18.000L54.670,18.000" style="fill: none; stroke-width: 1; stroke: rgb(49, 239, 184); stroke-opacity: 1;"/></g></g></g><g id="shape-a20101ed-8de0-80b5-8001-d170cc73ad7f"><g class="fills" id="fills-a20101ed-8de0-80b5-8001-d170cc73ad7f"><path d="M25.000,18.000L38.824,18.000" fill="none" stroke-linecap="round" style="fill: none;"/></g><g fill="none" stroke-linecap="round" id="strokes-7456ef9b-02fe-8088-8006-5c5230ab8cc6-a20101ed-8de0-80b5-8001-d170cc73ad7f" class="strokes"><g class="stroke-shape"><path d="M25.000,18.000L38.824,18.000" style="fill: none; stroke-width: 1; stroke: rgb(49, 239, 184); stroke-opacity: 1;"/></g></g></g><g id="shape-a20101ed-8de0-80b5-8001-d170cc73e1b2"><g class="fills" id="fills-a20101ed-8de0-80b5-8001-d170cc73e1b2"><path d="M35.000,41.000L50.607,41.000" fill="none" stroke-linecap="round" style="fill: none;"/></g><g fill="none" stroke-linecap="round" id="strokes-7456ef9b-02fe-8088-8006-5c5230abc089-a20101ed-8de0-80b5-8001-d170cc73e1b2" class="strokes"><g class="stroke-shape"><path d="M35.000,41.000L50.607,41.000" style="fill: none; stroke-width: 1; stroke: rgb(49, 239, 184); stroke-opacity: 1;"/></g></g></g><g id="shape-a20101ed-8de0-80b5-8001-d170cc742001"><g class="fills" id="fills-a20101ed-8de0-80b5-8001-d170cc742001"><path d="M25.000,41.000L28.766,41.000" fill="none" stroke-linecap="round" style="fill: none;"/></g><g fill="none" stroke-linecap="round" id="strokes-7456ef9b-02fe-8088-8006-5c5230ac1cb8-a20101ed-8de0-80b5-8001-d170cc742001" class="strokes"><g class="stroke-shape"><path d="M25.000,41.000L28.766,41.000" style="fill: none; stroke-width: 1; stroke: rgb(49, 239, 184); stroke-opacity: 1;"/></g></g></g><g id="shape-a20101ed-8de0-80b5-8001-d170cc746175"><g class="fills" id="fills-a20101ed-8de0-80b5-8001-d170cc746175"><path d="M25.000,12.000L47.427,12.000" fill="none" stroke-linecap="round" style="fill: none;"/></g><g fill="none" stroke-linecap="round" id="strokes-7456ef9b-02fe-8088-8006-5c5230aca059-a20101ed-8de0-80b5-8001-d170cc746175" class="strokes"><g class="stroke-shape"><path d="M25.000,12.000L47.427,12.000" style="fill: none; stroke-width: 1; stroke: rgb(49, 239, 184); stroke-opacity: 1;"/></g></g></g><g id="shape-a20101ed-8de0-80b5-8001-d170cc7488eb"><g class="fills" id="fills-a20101ed-8de0-80b5-8001-d170cc7488eb"><path d="M51.000,12.000L54.766,12.000" fill="none" stroke-linecap="round" style="fill: none;"/></g><g fill="none" stroke-linecap="round" id="strokes-7456ef9b-02fe-8088-8006-5c5230acf164-a20101ed-8de0-80b5-8001-d170cc7488eb" class="strokes"><g class="stroke-shape"><path d="M51.000,12.000L54.766,12.000" style="fill: none; stroke-width: 1; stroke: rgb(49, 239, 184); stroke-opacity: 1;"/></g></g></g></g></svg>